<?xml version="1.0" encoding="utf-8"?>
<!-- Generator: Adobe Illustrator 23.0.3, SVG Export Plug-In . SVG Version: 6.00 Build 0)  -->
<svg version="1.1" id="Layer_1" xmlns="http://www.w3.org/2000/svg" xmlns:xlink="http://www.w3.org/1999/xlink" x="0px" y="0px"
	 viewBox="0 0 518.6 138.1" style="enable-background:new 0 0 518.6 138.1;" xml:space="preserve">
<style type="text/css">
	.st0{fill:none;stroke:#827AFF;stroke-width:20;stroke-linecap:round;stroke-linejoin:round;}
	.st1{fill:#827AFF;stroke:#827AFF;stroke-width:10;stroke-linecap:round;stroke-linejoin:round;}
	.st2{fill:#827AFF;}
</style>
<title>dummies-wiley-brand</title>
<path class="st0" d="M330.2,84.6c-2.8,0.1-5.4,1.2-7.4,3.1L312,98.5c-4.2,4.2-4.2,11,0,15.2l1.3,1.3c4.2,4.2,11,4.2,15.2,0
	l10.8-10.8c2-2,3.1-4.6,3.2-7.4"/>
<path class="st0" d="M369.6,69.7c2.8-0.1,5.4-1.2,7.4-3.2l10.8-10.8c4.2-4.2,4.2-11,0-15.2l-1.3-1.3c-4.2-4.2-11-4.2-15.2,0
	c0,0,0,0,0,0l-10.8,10.8c-2,2-3.1,4.6-3.2,7.4"/>
<circle class="st1" cx="349.3" cy="77.4" r="4.1"/>
<g>
	<path class="st2" d="M139.8,53.1c0-0.7,0.4-1.1,1.1-1.1h13.4c0.7,0,1.1,0.4,1.1,1.1v26c0.1,1.8,0.9,3.3,2.4,4.3
		c1.4,1.1,3.4,1.6,6,1.6h2.4c1.5,0,2.6,0.5,3.3,1.5c0.7,1,1.1,2.7,1.1,5.1c0,4.5-1.5,6.7-4.4,6.7c-2.4,0-4.5-0.2-6.3-0.7
		c-1.8-0.5-3.3-1.5-4.5-3v1.8c0,8.4-1.6,14.5-4.8,18.5c-3.2,4-8.7,6-16.5,6h-5.1c-0.7,0-1.1-0.4-1.1-1.1v-11.1
		c0-0.7,0.4-1.1,1.1-1.1h2.4c2,0,3.5-0.3,4.6-0.9c1.1-0.6,1.9-1.5,2.5-2.8s0.9-2.7,1-4.5c0.1-1.8,0.2-3.8,0.2-6.1V53.1z"/>
	<path class="st2" d="M172.5,18c0-2.5,0.9-4.6,2.6-6.4c1.7-1.8,3.9-2.7,6.4-2.7c2.5,0,4.6,0.9,6.4,2.7c1.8,1.8,2.7,3.9,2.7,6.4
		c0,2.6-0.9,4.7-2.7,6.4c-1.8,1.7-3.9,2.6-6.4,2.6c-2.6,0-4.7-0.9-6.4-2.6C173.4,22.7,172.5,20.6,172.5,18z M176.8,17.9
		c0,1.3,0.5,2.5,1.4,3.4c1,1,2.1,1.4,3.4,1.4s2.5-0.5,3.4-1.4c1-1,1.4-2.1,1.4-3.4c0-1.3-0.5-2.5-1.4-3.4c-1-1-2.1-1.4-3.4-1.4
		s-2.5,0.5-3.4,1.4C177.3,15.4,176.8,16.6,176.8,17.9z"/>
	<path class="st2" d="M189.8,92.8c-1.2,2.3-3,3.8-5.2,4.5c-2.2,0.7-5.3,1-9.2,1h-8.8c-1.5,0-2.6-0.2-3.3-0.7
		c-0.7-0.5-1.1-1.5-1.1-3.1c0-1,0.1-2,0.2-3.1c0.1-1.1,0.4-2.1,0.8-3.1c0.4-1,0.8-1.7,1.4-2.4c0.6-0.6,1.3-0.9,2.2-0.9h3.6
		c2.3,0,3.7-0.6,4.3-1.9c0.6-1.3,0.9-3.6,0.9-6.9V53.1c0-0.6,0.5-0.9,1.6-1c1.1-0.1,2-0.1,2.8-0.1h10.1c0.7,0,1.1,0.4,1.1,1.1v26
		c0.1,1.8,0.9,3.3,2.4,4.3c1.4,1.1,3.4,1.6,6,1.6h2.5c1.5,0,2.6,0.5,3.3,1.5c0.7,1,1.1,2.7,1.1,5.1c0,4.5-1.5,6.7-4.4,6.7
		c-2.8,0-5.2-0.3-7.3-1C192.9,96.7,191.2,95.2,189.8,92.8z M176.6,120.7c-0.7,0-1.1-0.4-1.1-1.1v-10.8c0-0.7,0.4-1.1,1.1-1.1h13.6
		c0.7,0,1.1,0.4,1.1,1.1v10.8c0,0.7-0.4,1.1-1.1,1.1H176.6z"/>
	<path class="st2" d="M238.3,113.5c-0.7,0-1.1-0.4-1.1-1.1v-2.2c0-0.7,0.4-1.1,1.1-1.1h27.9c0.7,0,1.1,0.4,1.1,1.1v2.2
		c0,0.7-0.4,1.1-1.1,1.1H238.3z"/>
	<path class="st2" d="M239.5,98.3c-2.9,0-5.2-0.5-7-1.6c-1.8-1.1-3.2-2.5-4.2-4.2c-1,2.3-2.6,3.9-4.6,4.7c-2.1,0.8-4.9,1.2-8.7,1.2
		h-13.2c-1.5,0-2.6-0.4-3.3-1.3c-0.7-0.8-1.1-2.5-1.1-4.9c0-2.6,0.3-4.4,1-5.5c0.7-1.1,1.8-1.6,3.4-1.6h7.4c2.1,0,3.5-0.5,4.1-1.6
		c0.6-1.1,0.9-3,0.9-5.9V61c0-0.7,0.4-1.1,1.1-1.1h13.4c0.7,0,1.1,0.4,1.1,1.1v18c0,2.3,0.7,3.9,2.2,4.7c1.5,0.8,3.1,1.2,4.8,1.2
		c1.4,0,2.5-0.1,3.4-0.4c0.8-0.3,1.4-0.7,1.8-1.3c0.4-0.6,0.6-1.4,0.7-2.4c0.1-1,0.2-2.2,0.2-3.7V61c0-0.7,0.4-1.1,1.1-1.1h13.4
		c0.7,0,1.1,0.4,1.1,1.1v17.9c0,2.5,0.8,4.1,2.3,4.9c1.5,0.8,3.2,1.2,5.1,1.2c1.4,0,2.5-0.1,3.2-0.4c0.7-0.3,1.3-0.8,1.7-1.4
		c0.4-0.6,0.6-1.4,0.7-2.4c0.1-1,0.1-2.2,0.1-3.7v-24c0-0.7,0.4-1.1,1.1-1.1h13.4c0.7,0,1.1,0.4,1.1,1.1v31.4c0,4.8-1,8.3-3,10.5
		c-2,2.2-5.3,3.4-9.9,3.4h-6c-2.9,0-5.2-0.5-7-1.6c-1.8-1.1-3.2-2.5-4.1-4.2c-1,2.3-2.6,3.8-4.7,4.6c-2.1,0.8-4.9,1.2-8.5,1.2H239.5
		z M236.1,40.9c-0.7,0-1.1-0.4-1.1-1.1V29c0-0.7,0.4-1.1,1.1-1.1h11c0.7,0,1.1,0.4,1.1,1.1v10.8c0,0.7-0.4,1.1-1.1,1.1H236.1z
		 M244.7,25.2c-0.7,0-1.1-0.4-1.1-1.1V13.3c0-0.7,0.4-1.1,1.1-1.1h11c0.7,0,1.1,0.4,1.1,1.1v10.8c0,0.7-0.4,1.1-1.1,1.1H244.7z
		 M253,40.9c-0.7,0-1.1-0.4-1.1-1.1V29c0-0.7,0.4-1.1,1.1-1.1h11.1c0.7,0,1.1,0.4,1.1,1.1v10.8c0,0.7-0.4,1.1-1.1,1.1H253z"/>
</g>
</svg>
